<svg id="svg" version="1.1" xmlns="http://www.w3.org/2000/svg" xmlns:xlink="http://www.w3.org/1999/xlink" width="400" height="53.648068669527895" viewBox="0, 0, 400,53.648068669527895"><g id="svgg"><path id="path0" d="M19.938 12.421 C 19.869 12.602,19.564 12.667,18.789 12.667 C 18.208 12.667,17.662 12.735,17.575 12.819 C 17.488 12.903,17.229 12.999,17.000 13.032 C 16.771 13.064,16.602 13.183,16.625 13.296 C 16.648 13.408,16.510 13.500,16.318 13.500 C 15.925 13.500,15.121 14.066,15.283 14.228 C 15.341 14.286,15.264 14.333,15.111 14.333 C 14.958 14.333,14.833 14.446,14.833 14.583 C 14.833 14.721,14.752 14.833,14.654 14.833 C 14.453 14.833,13.167 16.160,13.167 16.368 C 13.167 16.440,13.054 16.500,12.917 16.500 C 12.778 16.500,12.667 16.648,12.667 16.833 C 12.667 17.017,12.573 17.148,12.458 17.125 C 12.333 17.100,12.269 17.224,12.299 17.438 C 12.326 17.639,12.236 17.835,12.090 17.891 C 11.949 17.945,11.833 18.142,11.833 18.328 C 11.833 18.518,11.724 18.667,11.583 18.667 C 11.428 18.667,11.333 18.824,11.333 19.083 C 11.333 19.313,11.258 19.500,11.167 19.500 C 11.075 19.500,11.000 19.688,11.000 19.917 C 11.000 20.176,10.906 20.333,10.750 20.333 C 10.569 20.333,10.500 20.519,10.500 21.000 C 10.500 21.367,10.425 21.667,10.333 21.667 C 10.242 21.667,10.167 22.034,10.167 22.482 C 10.167 23.032,10.090 23.327,9.930 23.388 C 9.565 23.528,9.548 29.194,9.911 29.495 C 10.076 29.632,10.167 29.992,10.167 30.511 C 10.167 30.952,10.242 31.360,10.333 31.417 C 10.425 31.473,10.500 31.778,10.500 32.093 C 10.500 32.492,10.576 32.667,10.750 32.667 C 10.918 32.667,11.000 32.834,11.000 33.177 C 11.000 33.474,11.069 33.643,11.167 33.583 C 11.264 33.523,11.333 33.693,11.333 33.990 C 11.333 34.332,11.416 34.500,11.583 34.500 C 11.739 34.500,11.833 34.657,11.833 34.917 C 11.833 35.176,11.928 35.333,12.083 35.333 C 12.222 35.333,12.333 35.481,12.333 35.665 C 12.333 36.049,12.828 36.689,13.030 36.565 C 13.105 36.518,13.167 36.597,13.167 36.740 C 13.167 36.883,13.242 37.000,13.333 37.000 C 13.425 37.000,13.500 37.112,13.500 37.250 C 13.500 37.387,13.580 37.500,13.679 37.500 C 13.909 37.500,14.333 37.924,14.333 38.155 C 14.333 38.253,14.428 38.333,14.544 38.333 C 14.660 38.333,14.895 38.521,15.067 38.750 C 15.239 38.979,15.522 39.167,15.695 39.167 C 15.869 39.167,16.052 39.274,16.102 39.406 C 16.153 39.538,16.304 39.604,16.437 39.552 C 16.587 39.495,16.662 39.547,16.632 39.688 C 16.599 39.843,16.784 39.933,17.208 39.968 C 17.617 40.002,17.833 40.103,17.833 40.260 C 17.833 40.640,44.250 40.619,44.462 40.240 C 44.543 40.095,44.844 39.973,45.137 39.964 C 45.428 39.956,45.667 39.886,45.667 39.808 C 45.667 39.730,45.779 39.667,45.917 39.667 C 46.054 39.667,46.167 39.554,46.167 39.417 C 46.167 39.261,46.324 39.167,46.583 39.167 C 46.843 39.167,47.000 39.072,47.000 38.917 C 47.000 38.779,47.080 38.667,47.179 38.667 C 47.409 38.667,47.833 38.243,47.833 38.012 C 47.833 37.914,47.914 37.833,48.012 37.833 C 48.243 37.833,48.667 37.409,48.667 37.179 C 48.667 37.080,48.779 37.000,48.917 37.000 C 49.054 37.000,49.167 36.933,49.167 36.851 C 49.167 36.769,49.353 36.525,49.580 36.309 C 49.808 36.093,49.996 35.793,49.997 35.643 C 49.999 35.492,50.117 35.324,50.261 35.269 C 50.404 35.214,50.481 35.105,50.433 35.026 C 50.384 34.947,50.452 34.740,50.583 34.566 C 50.715 34.392,50.825 34.127,50.828 33.976 C 50.831 33.826,50.946 33.659,51.083 33.606 C 51.221 33.554,51.333 33.321,51.333 33.089 C 51.333 32.857,51.408 32.667,51.500 32.667 C 51.592 32.667,51.667 32.412,51.667 32.101 C 51.667 31.752,51.762 31.499,51.917 31.440 C 52.101 31.369,52.167 31.078,52.167 30.339 C 52.167 29.780,52.241 29.333,52.333 29.333 C 52.438 29.333,52.500 28.306,52.500 26.583 C 52.500 24.861,52.438 23.833,52.333 23.833 C 52.239 23.833,52.167 23.361,52.167 22.750 C 52.167 21.898,52.113 21.667,51.917 21.667 C 51.736 21.667,51.667 21.481,51.667 21.000 C 51.667 20.633,51.592 20.333,51.500 20.333 C 51.408 20.333,51.333 20.154,51.333 19.934 C 51.333 19.715,51.221 19.492,51.083 19.440 C 50.946 19.387,50.831 19.210,50.828 19.047 C 50.825 18.884,50.715 18.608,50.583 18.434 C 50.452 18.260,50.384 18.054,50.432 17.975 C 50.480 17.897,50.403 17.833,50.260 17.833 C 50.094 17.833,50.000 17.683,50.000 17.417 C 50.000 17.157,49.906 17.000,49.750 17.000 C 49.612 17.000,49.500 16.887,49.500 16.750 C 49.500 16.612,49.425 16.500,49.333 16.500 C 49.242 16.500,49.167 16.387,49.167 16.250 C 49.167 16.112,49.093 16.000,49.003 16.000 C 48.913 16.000,48.292 15.456,47.623 14.792 C 46.954 14.127,46.259 13.557,46.079 13.526 C 45.898 13.494,45.690 13.363,45.617 13.234 C 45.543 13.105,45.304 13.000,45.085 13.000 C 44.866 13.000,44.640 12.925,44.583 12.833 C 44.527 12.742,44.044 12.667,43.511 12.667 C 42.854 12.667,42.474 12.586,42.334 12.418 C 42.025 12.045,20.081 12.048,19.938 12.421 M57.874 12.275 C 57.759 12.323,57.707 12.430,57.759 12.514 C 57.811 12.598,57.736 12.667,57.593 12.667 C 57.223 12.667,57.196 29.751,57.565 30.467 C 57.693 30.714,57.775 31.123,57.747 31.375 C 57.713 31.683,57.773 31.833,57.931 31.833 C 58.095 31.833,58.167 32.037,58.167 32.500 C 58.167 32.981,58.236 33.167,58.417 33.167 C 58.572 33.167,58.667 33.324,58.667 33.583 C 58.667 33.813,58.742 34.000,58.833 34.000 C 58.925 34.000,59.000 34.188,59.000 34.417 C 59.000 34.676,59.094 34.833,59.250 34.833 C 59.406 34.833,59.500 34.991,59.500 35.250 C 59.500 35.479,59.575 35.667,59.667 35.667 C 59.758 35.667,59.833 35.779,59.833 35.917 C 59.833 36.054,59.946 36.167,60.083 36.167 C 60.221 36.167,60.336 36.298,60.338 36.458 C 60.344 36.781,61.231 37.833,61.498 37.833 C 61.591 37.833,61.667 37.919,61.667 38.023 C 61.667 38.279,62.181 38.655,62.542 38.661 C 62.702 38.664,62.833 38.779,62.833 38.917 C 62.833 39.054,62.938 39.167,63.066 39.167 C 63.193 39.167,63.344 39.287,63.400 39.434 C 63.460 39.590,63.609 39.661,63.758 39.603 C 63.902 39.548,64.054 39.613,64.107 39.753 C 64.160 39.889,64.347 40.000,64.524 40.000 C 64.700 40.000,65.017 40.113,65.228 40.251 C 65.563 40.470,67.235 40.497,78.347 40.459 L 91.083 40.417 91.126 26.626 C 91.168 13.109,91.162 12.829,90.841 12.508 C 90.437 12.103,84.878 12.057,84.958 12.458 C 84.981 12.573,84.850 12.667,84.667 12.667 C 84.337 12.667,84.333 12.778,84.333 23.583 L 84.333 34.500 76.434 34.500 C 69.567 34.500,68.523 34.467,68.440 34.250 C 68.387 34.112,68.228 34.000,68.086 34.000 C 67.730 34.000,67.224 33.707,66.429 33.042 C 66.293 32.927,66.103 32.833,66.007 32.833 C 65.911 32.833,65.831 32.665,65.828 32.458 C 65.822 32.028,65.470 31.500,65.190 31.500 C 65.085 31.500,65.000 31.319,65.000 31.097 C 65.000 30.876,64.923 30.669,64.830 30.638 C 64.736 30.607,64.642 30.339,64.621 30.043 C 64.600 29.747,64.490 29.468,64.375 29.424 C 64.212 29.361,64.167 27.574,64.167 21.264 C 64.167 14.981,64.120 13.154,63.958 13.050 C 63.844 12.977,63.667 12.767,63.565 12.583 C 63.384 12.257,58.552 11.995,57.874 12.275 M98.792 12.281 C 98.631 12.323,98.500 12.427,98.500 12.512 C 98.500 12.597,98.338 12.667,98.140 12.667 C 97.759 12.667,96.785 13.620,96.928 13.852 C 96.975 13.927,96.860 14.085,96.673 14.201 C 96.486 14.318,96.333 14.508,96.333 14.623 C 96.333 14.739,96.258 14.833,96.167 14.833 C 96.075 14.833,96.000 15.021,96.000 15.250 C 96.000 15.509,95.906 15.667,95.750 15.667 C 95.597 15.667,95.500 15.823,95.500 16.069 C 95.500 16.291,95.421 16.499,95.325 16.531 C 95.064 16.618,95.033 18.167,95.292 18.167 C 95.406 18.167,95.500 18.279,95.500 18.417 C 95.500 18.554,95.556 18.658,95.625 18.647 C 95.694 18.636,98.393 18.636,101.624 18.647 L 107.498 18.667 107.540 29.542 L 107.583 40.417 110.917 40.417 L 114.250 40.417 114.293 29.542 L 114.336 18.667 118.668 18.646 C 124.007 18.620,123.576 18.656,123.964 18.208 C 124.143 18.002,124.374 17.833,124.478 17.833 C 124.582 17.833,124.667 17.721,124.667 17.583 C 124.667 17.446,124.779 17.333,124.917 17.333 C 125.054 17.333,125.167 17.221,125.167 17.083 C 125.167 16.946,125.242 16.833,125.333 16.833 C 125.425 16.833,125.500 16.755,125.500 16.660 C 125.500 16.496,125.630 16.308,126.125 15.756 C 126.240 15.628,126.333 15.366,126.333 15.173 C 126.333 14.981,126.446 14.780,126.583 14.727 C 126.766 14.657,126.833 14.368,126.833 13.649 C 126.833 12.887,126.777 12.667,126.583 12.667 C 126.446 12.667,126.333 12.556,126.333 12.420 C 126.333 12.182,99.676 12.047,98.792 12.281 M139.394 12.417 C 139.320 12.610,138.998 12.667,137.982 12.667 C 137.216 12.667,136.667 12.736,136.667 12.833 C 136.667 12.925,136.445 13.000,136.175 13.000 C 135.905 13.000,135.621 13.110,135.546 13.245 C 135.470 13.380,135.230 13.518,135.011 13.551 C 134.793 13.585,134.483 13.774,134.322 13.973 C 134.161 14.171,133.873 14.333,133.682 14.333 C 133.483 14.333,133.333 14.441,133.333 14.583 C 133.333 14.721,133.257 14.833,133.164 14.833 C 132.905 14.833,132.010 15.881,132.005 16.191 C 132.002 16.341,131.887 16.508,131.750 16.560 C 131.612 16.613,131.500 16.809,131.500 16.995 C 131.500 17.181,131.425 17.333,131.333 17.333 C 131.242 17.333,131.167 17.625,131.167 17.982 C 131.167 18.405,131.080 18.664,130.917 18.727 C 130.713 18.805,130.667 19.207,130.667 20.900 C 130.667 22.523,130.721 23.031,130.917 23.226 C 131.054 23.364,131.167 23.617,131.167 23.788 C 131.167 24.250,131.552 24.997,131.792 24.999 C 131.906 24.999,132.000 25.188,132.000 25.417 C 132.000 25.676,132.094 25.833,132.250 25.833 C 132.387 25.833,132.481 25.892,132.458 25.964 C 132.390 26.179,133.940 27.667,134.232 27.667 C 134.379 27.667,134.500 27.742,134.500 27.833 C 134.500 27.925,134.612 28.000,134.750 28.000 C 134.887 28.000,135.000 28.113,135.000 28.250 C 135.000 28.406,135.157 28.500,135.417 28.500 C 135.646 28.500,135.833 28.575,135.833 28.667 C 135.833 28.758,136.133 28.833,136.500 28.833 C 136.981 28.833,137.167 28.903,137.167 29.083 C 137.167 29.272,137.370 29.333,138.000 29.333 C 138.458 29.333,138.833 29.408,138.833 29.500 C 138.833 29.609,141.750 29.667,147.250 29.667 C 153.124 29.667,155.667 29.721,155.667 29.845 C 155.667 30.076,156.091 30.500,156.321 30.500 C 156.420 30.500,156.500 30.604,156.500 30.732 C 156.500 30.860,156.611 31.007,156.747 31.059 C 156.887 31.113,156.952 31.265,156.897 31.409 C 156.839 31.558,156.910 31.706,157.066 31.766 C 157.404 31.896,157.417 32.333,157.083 32.333 C 156.928 32.333,156.833 32.491,156.833 32.750 C 156.833 32.979,156.758 33.167,156.667 33.167 C 156.575 33.167,156.500 33.279,156.500 33.417 C 156.500 33.554,156.387 33.667,156.250 33.667 C 156.112 33.667,156.000 33.742,156.000 33.833 C 156.000 33.925,155.848 34.000,155.661 34.000 C 155.475 34.000,155.280 34.112,155.227 34.250 C 155.143 34.469,153.785 34.500,144.399 34.500 C 137.355 34.500,133.667 34.557,133.667 34.667 C 133.667 34.758,133.566 34.833,133.442 34.833 C 133.074 34.833,132.500 35.429,132.500 35.811 C 132.500 36.016,132.394 36.167,132.250 36.167 C 132.112 36.167,132.000 36.279,132.000 36.417 C 132.000 36.554,131.887 36.667,131.750 36.667 C 131.594 36.667,131.500 36.824,131.500 37.083 C 131.500 37.313,131.425 37.500,131.333 37.500 C 131.242 37.500,131.167 37.688,131.167 37.917 C 131.167 38.171,131.072 38.333,130.923 38.333 C 130.733 38.333,130.681 38.573,130.687 39.417 L 130.696 40.500 144.103 40.500 C 155.867 40.500,157.522 40.469,157.606 40.250 C 157.666 40.094,157.920 40.000,158.280 40.000 C 158.597 40.000,158.970 39.887,159.109 39.748 C 159.247 39.610,159.430 39.540,159.515 39.592 C 159.600 39.645,159.714 39.571,159.769 39.427 C 159.824 39.284,160.048 39.167,160.268 39.167 C 160.511 39.167,160.667 39.069,160.667 38.917 C 160.667 38.779,160.747 38.667,160.845 38.667 C 161.076 38.667,161.500 38.243,161.500 38.012 C 161.500 37.914,161.581 37.833,161.679 37.833 C 161.994 37.833,162.833 36.872,162.833 36.513 C 162.833 36.316,162.941 36.167,163.083 36.167 C 163.239 36.167,163.333 36.009,163.333 35.750 C 163.333 35.521,163.408 35.333,163.500 35.333 C 163.596 35.333,163.667 34.802,163.667 34.071 C 163.667 33.172,163.738 32.738,163.917 32.560 C 164.054 32.422,164.167 32.173,164.167 32.006 C 164.167 31.839,164.054 31.659,163.917 31.606 C 163.730 31.535,163.667 31.236,163.667 30.422 C 163.667 29.807,163.594 29.333,163.500 29.333 C 163.408 29.333,163.333 29.146,163.333 28.917 C 163.333 28.657,163.239 28.500,163.083 28.500 C 162.928 28.500,162.833 28.343,162.833 28.083 C 162.833 27.854,162.758 27.667,162.667 27.667 C 162.575 27.667,162.500 27.554,162.500 27.417 C 162.500 27.279,162.400 27.167,162.278 27.167 C 162.156 27.167,161.956 26.979,161.833 26.750 C 161.711 26.521,161.542 26.333,161.459 26.333 C 161.375 26.333,161.010 26.033,160.647 25.667 C 160.284 25.300,159.878 25.000,159.744 25.000 C 159.610 25.000,159.500 24.925,159.500 24.833 C 159.500 24.742,159.321 24.667,159.101 24.667 C 158.882 24.667,158.659 24.554,158.606 24.417 C 158.554 24.279,158.321 24.167,158.089 24.167 C 157.857 24.167,157.667 24.092,157.667 24.000 C 157.667 23.908,157.300 23.833,156.851 23.833 C 156.280 23.833,156.007 23.758,155.940 23.583 C 155.856 23.366,154.766 23.333,147.526 23.333 C 140.488 23.333,139.177 23.296,139.008 23.093 C 138.899 22.961,138.702 22.894,138.571 22.944 C 138.426 23.000,138.333 22.931,138.333 22.768 C 138.333 22.621,138.258 22.500,138.167 22.500 C 138.075 22.500,138.000 22.387,138.000 22.250 C 138.000 22.113,137.887 22.000,137.750 22.000 C 137.562 22.000,137.500 21.798,137.500 21.184 C 137.500 20.613,137.575 20.340,137.750 20.273 C 137.887 20.220,138.000 20.037,138.000 19.865 C 138.000 19.666,138.240 19.439,138.665 19.235 C 139.030 19.060,139.330 18.860,139.331 18.792 C 139.332 18.723,144.125 18.667,149.982 18.667 C 159.294 18.667,160.643 18.635,160.727 18.417 C 160.780 18.279,160.945 18.167,161.095 18.167 C 161.445 18.167,162.500 17.115,162.500 16.767 C 162.500 16.620,162.575 16.500,162.667 16.500 C 162.758 16.500,162.833 16.387,162.833 16.250 C 162.833 16.112,162.946 16.000,163.083 16.000 C 163.239 16.000,163.333 15.843,163.333 15.583 C 163.333 15.354,163.408 15.167,163.500 15.167 C 163.592 15.167,163.667 14.867,163.667 14.500 C 163.667 14.133,163.742 13.833,163.833 13.833 C 163.925 13.833,164.000 13.683,164.000 13.500 C 164.000 13.317,163.925 13.167,163.833 13.167 C 163.742 13.167,163.667 13.032,163.667 12.867 C 163.667 12.160,163.779 12.167,151.610 12.167 C 140.706 12.167,139.939 12.186,139.726 12.458 C 139.510 12.736,139.504 12.736,139.601 12.458 C 139.724 12.104,139.529 12.064,139.394 12.417 M168.866 12.471 L 168.494 12.794 168.560 21.522 C 168.628 30.540,168.696 31.833,169.100 31.833 C 169.261 31.833,169.333 32.040,169.333 32.500 C 169.333 32.994,169.401 33.167,169.595 33.167 C 169.780 33.167,169.825 33.263,169.750 33.501 C 169.679 33.723,169.731 33.869,169.905 33.935 C 170.049 33.991,170.167 34.215,170.167 34.434 C 170.167 34.678,170.264 34.833,170.417 34.833 C 170.572 34.833,170.667 34.991,170.667 35.250 C 170.667 35.479,170.742 35.667,170.833 35.667 C 170.925 35.667,171.000 35.779,171.000 35.917 C 171.000 36.054,171.112 36.167,171.250 36.167 C 171.387 36.167,171.502 36.298,171.505 36.458 C 171.510 36.781,172.398 37.833,172.664 37.833 C 172.757 37.833,172.833 37.946,172.833 38.083 C 172.833 38.221,172.946 38.333,173.083 38.333 C 173.221 38.333,173.333 38.408,173.333 38.500 C 173.333 38.592,173.483 38.667,173.667 38.667 C 173.852 38.667,174.000 38.778,174.000 38.917 C 174.000 39.054,174.104 39.167,174.232 39.167 C 174.360 39.167,174.508 39.279,174.560 39.417 C 174.613 39.554,174.809 39.667,174.995 39.667 C 175.181 39.667,175.333 39.742,175.333 39.833 C 175.333 39.925,175.515 40.000,175.736 40.000 C 175.958 40.000,176.170 40.094,176.208 40.208 C 176.263 40.373,179.023 40.417,189.264 40.417 L 202.250 40.417 202.293 26.542 C 202.330 14.277,202.306 12.667,202.084 12.667 C 201.946 12.667,201.833 12.557,201.833 12.423 C 201.833 12.216,201.388 12.184,198.958 12.214 C 197.151 12.237,196.095 12.312,196.115 12.417 C 196.133 12.508,196.001 12.637,195.823 12.703 C 195.508 12.820,195.500 13.086,195.500 23.661 L 195.500 34.500 187.578 34.500 C 180.690 34.500,179.644 34.467,179.560 34.250 C 179.508 34.112,179.375 34.000,179.265 34.000 C 178.973 34.000,178.169 33.604,178.168 33.458 C 178.167 33.390,178.052 33.333,177.911 33.333 C 177.771 33.333,177.613 33.221,177.560 33.083 C 177.508 32.946,177.360 32.833,177.232 32.833 C 177.104 32.833,176.998 32.665,176.995 32.458 C 176.989 32.028,176.637 31.500,176.357 31.500 C 176.252 31.500,176.167 31.345,176.167 31.155 C 176.167 30.965,176.048 30.691,175.902 30.545 C 175.747 30.390,175.670 30.114,175.715 29.877 C 175.762 29.630,175.703 29.440,175.563 29.386 C 175.372 29.313,175.333 27.927,175.333 21.240 C 175.333 14.977,175.287 13.154,175.125 13.050 C 175.010 12.977,174.834 12.767,174.732 12.583 C 174.450 12.073,169.436 11.978,168.866 12.471 M207.042 12.570 L 206.667 12.964 206.667 26.732 L 206.667 40.500 210.083 40.500 L 213.500 40.500 213.500 29.583 L 213.500 18.667 221.907 18.667 C 227.332 18.667,230.350 18.726,230.417 18.833 C 230.473 18.925,230.665 19.000,230.843 19.000 C 231.021 19.000,231.167 19.112,231.167 19.250 C 231.167 19.387,231.223 19.500,231.292 19.501 C 231.851 19.506,232.239 21.761,231.750 22.167 C 231.612 22.281,231.500 22.472,231.500 22.592 C 231.500 22.841,230.598 23.333,230.141 23.333 C 229.972 23.333,229.833 23.445,229.833 23.582 C 229.833 23.797,228.872 23.836,222.563 23.873 L 215.293 23.917 215.284 25.020 C 215.275 26.146,216.456 27.920,216.993 27.588 C 217.086 27.530,217.130 27.580,217.089 27.700 C 217.022 27.895,218.621 29.333,218.906 29.333 C 219.088 29.333,219.500 29.788,219.500 29.988 C 219.500 30.086,219.612 30.167,219.750 30.167 C 219.887 30.167,220.000 30.247,220.000 30.345 C 220.000 30.576,220.424 31.000,220.655 31.000 C 220.753 31.000,220.833 31.100,220.833 31.222 C 220.833 31.344,221.021 31.544,221.250 31.667 C 221.479 31.789,221.667 31.989,221.667 32.111 C 221.667 32.234,221.747 32.333,221.845 32.333 C 222.076 32.333,222.500 32.757,222.500 32.988 C 222.500 33.086,222.583 33.167,222.684 33.167 C 222.786 33.167,223.016 33.354,223.196 33.583 C 223.377 33.812,223.631 34.000,223.762 34.000 C 223.893 34.000,223.981 34.094,223.958 34.208 C 223.935 34.323,224.010 34.398,224.125 34.375 C 224.240 34.352,224.333 34.417,224.333 34.520 C 224.333 34.750,225.346 35.660,225.607 35.664 C 225.712 35.665,225.841 35.779,225.894 35.917 C 225.946 36.054,226.109 36.167,226.255 36.167 C 226.400 36.167,226.482 36.228,226.435 36.304 C 226.337 36.461,226.788 36.883,227.240 37.056 C 227.409 37.121,227.503 37.219,227.448 37.274 C 227.325 37.397,227.745 37.833,227.988 37.833 C 228.086 37.833,228.167 37.914,228.167 38.012 C 228.167 38.243,228.591 38.667,228.821 38.667 C 228.920 38.667,229.000 38.779,229.000 38.917 C 229.000 39.054,229.113 39.167,229.250 39.167 C 229.388 39.167,229.481 39.260,229.458 39.375 C 229.435 39.490,229.510 39.565,229.625 39.542 C 229.740 39.519,229.833 39.612,229.833 39.750 C 229.833 39.887,229.946 40.000,230.083 40.000 C 230.221 40.000,230.333 40.109,230.333 40.242 C 230.333 40.448,230.958 40.479,234.542 40.450 L 238.750 40.417 238.800 39.544 C 238.843 38.811,238.809 38.686,238.592 38.770 C 238.448 38.825,238.333 38.782,238.333 38.672 C 238.333 38.428,237.424 37.500,237.185 37.500 C 237.089 37.500,237.054 37.388,237.106 37.250 C 237.159 37.113,237.122 37.000,237.024 37.000 C 236.926 37.000,236.186 36.343,235.381 35.540 C 234.576 34.736,233.560 33.824,233.125 33.511 C 232.690 33.199,232.333 32.877,232.333 32.795 C 232.333 32.714,232.258 32.693,232.167 32.750 C 232.075 32.807,232.000 32.736,232.000 32.593 C 232.000 32.450,231.887 32.333,231.750 32.333 C 231.612 32.333,231.500 32.253,231.500 32.155 C 231.500 31.924,231.076 31.500,230.845 31.500 C 230.747 31.500,230.667 31.420,230.667 31.321 C 230.667 31.091,230.243 30.667,230.012 30.667 C 229.914 30.667,229.833 30.554,229.833 30.417 C 229.833 30.279,229.753 30.167,229.655 30.167 C 229.557 30.167,229.364 30.054,229.226 29.917 C 229.004 29.694,229.134 29.667,230.395 29.667 C 231.175 29.667,231.860 29.592,231.917 29.500 C 231.973 29.408,232.278 29.333,232.593 29.333 C 232.992 29.333,233.167 29.257,233.167 29.083 C 233.167 28.917,233.333 28.833,233.667 28.833 C 233.942 28.833,234.167 28.758,234.167 28.667 C 234.167 28.575,234.261 28.500,234.377 28.500 C 234.492 28.500,234.789 28.313,235.036 28.083 C 235.283 27.854,235.564 27.667,235.659 27.667 C 235.755 27.667,235.833 27.554,235.833 27.417 C 235.833 27.279,235.892 27.167,235.963 27.167 C 236.143 27.167,237.167 26.216,237.167 26.049 C 237.167 25.974,237.354 25.772,237.583 25.600 C 237.813 25.427,238.000 25.147,238.000 24.977 C 238.000 24.806,238.075 24.667,238.167 24.667 C 238.258 24.667,238.333 24.450,238.333 24.184 C 238.333 23.910,238.441 23.661,238.583 23.606 C 238.791 23.527,238.833 23.069,238.833 20.917 C 238.833 18.765,238.791 18.307,238.583 18.227 C 238.429 18.168,238.333 17.914,238.333 17.566 C 238.333 17.254,238.258 17.000,238.167 17.000 C 238.075 17.000,238.000 16.887,238.000 16.750 C 238.000 16.612,237.887 16.500,237.750 16.500 C 237.594 16.500,237.500 16.343,237.500 16.083 C 237.500 15.854,237.425 15.667,237.333 15.667 C 237.242 15.667,237.167 15.554,237.167 15.417 C 237.167 15.279,237.093 15.167,237.003 15.167 C 236.913 15.167,236.569 14.904,236.239 14.583 C 235.686 14.047,235.464 13.927,235.125 13.980 C 235.056 13.991,235.000 13.888,235.000 13.750 C 235.000 13.597,234.845 13.500,234.601 13.500 C 234.382 13.500,234.159 13.387,234.106 13.250 C 234.046 13.093,233.791 13.000,233.422 13.000 C 233.098 13.000,232.833 12.925,232.833 12.833 C 232.833 12.736,232.278 12.667,231.500 12.667 C 230.431 12.667,230.167 12.617,230.167 12.419 C 230.167 12.202,228.746 12.172,218.792 12.173 L 207.417 12.176 207.042 12.570 M253.559 12.419 C 253.489 12.602,253.189 12.667,252.413 12.667 C 251.834 12.667,251.336 12.735,251.306 12.818 C 251.275 12.902,250.989 13.010,250.669 13.060 C 250.350 13.109,250.063 13.229,250.031 13.325 C 249.998 13.421,249.862 13.500,249.726 13.500 C 249.591 13.500,249.522 13.567,249.572 13.649 C 249.623 13.731,249.468 13.847,249.229 13.907 C 248.751 14.027,248.333 14.376,248.333 14.655 C 248.333 14.753,248.253 14.833,248.155 14.833 C 247.924 14.833,247.500 15.257,247.500 15.488 C 247.500 15.586,247.422 15.667,247.326 15.667 C 247.107 15.667,246.382 16.332,246.594 16.338 C 246.680 16.341,246.619 16.420,246.458 16.513 C 246.298 16.607,246.167 16.830,246.167 17.008 C 246.167 17.187,246.054 17.333,245.917 17.333 C 245.779 17.333,245.667 17.446,245.667 17.583 C 245.667 17.721,245.592 17.833,245.500 17.833 C 245.408 17.833,245.333 18.013,245.333 18.232 C 245.333 18.452,245.221 18.674,245.083 18.727 C 244.946 18.780,244.833 18.975,244.833 19.161 C 244.833 19.348,244.758 19.500,244.667 19.500 C 244.575 19.500,244.500 19.800,244.500 20.167 C 244.500 20.648,244.431 20.833,244.250 20.833 C 244.082 20.833,244.000 21.001,244.000 21.345 C 244.000 21.627,243.901 21.956,243.781 22.076 C 243.645 22.213,243.578 22.612,243.605 23.135 C 243.634 23.706,243.570 24.039,243.407 24.175 C 243.204 24.343,243.167 25.606,243.167 32.346 L 243.167 40.318 243.708 40.417 C 244.006 40.471,245.525 40.493,247.083 40.466 L 249.917 40.417 249.961 35.042 L 250.005 29.667 259.419 29.667 C 265.584 29.667,268.833 29.609,268.833 29.500 C 268.833 29.408,268.946 29.333,269.083 29.333 C 269.221 29.333,269.333 29.253,269.333 29.155 C 269.333 28.924,269.757 28.500,269.988 28.500 C 270.086 28.500,270.167 28.396,270.167 28.268 C 270.167 28.140,270.267 27.997,270.390 27.950 C 270.513 27.903,270.742 27.595,270.898 27.265 C 271.054 26.936,271.254 26.667,271.341 26.667 C 271.429 26.667,271.500 26.479,271.500 26.250 C 271.500 26.021,271.564 25.833,271.642 25.833 C 271.720 25.833,271.797 25.383,271.813 24.833 C 271.831 24.239,271.774 23.833,271.672 23.833 C 271.577 23.833,271.500 23.721,271.500 23.583 C 271.500 23.364,270.241 23.333,261.167 23.333 L 250.833 23.333 250.833 22.934 C 250.833 22.715,250.946 22.492,251.083 22.440 C 251.221 22.387,251.333 22.150,251.333 21.912 C 251.333 21.667,251.405 21.525,251.500 21.583 C 251.595 21.642,251.667 21.502,251.667 21.260 C 251.667 20.992,251.760 20.833,251.917 20.833 C 252.054 20.833,252.167 20.721,252.167 20.583 C 252.167 20.446,252.242 20.333,252.333 20.333 C 252.425 20.333,252.500 20.221,252.500 20.083 C 252.500 19.946,252.612 19.833,252.750 19.833 C 252.887 19.833,253.000 19.758,253.000 19.667 C 253.000 19.575,253.104 19.500,253.232 19.500 C 253.360 19.500,253.508 19.387,253.560 19.250 C 253.613 19.112,253.842 19.000,254.068 19.000 C 254.295 19.000,254.527 18.925,254.583 18.833 C 254.650 18.726,257.633 18.667,262.986 18.667 L 271.287 18.667 271.600 18.250 C 271.772 18.021,272.007 17.833,272.123 17.833 C 272.239 17.833,272.333 17.721,272.333 17.583 C 272.333 17.446,272.408 17.333,272.500 17.333 C 272.592 17.333,272.667 17.221,272.667 17.083 C 272.667 16.946,272.779 16.833,272.917 16.833 C 273.054 16.833,273.167 16.721,273.167 16.583 C 273.167 16.446,273.223 16.333,273.292 16.332 C 273.478 16.331,274.000 15.352,274.000 15.004 C 274.000 14.838,274.112 14.659,274.250 14.606 C 274.594 14.474,274.611 12.667,274.268 12.667 C 274.140 12.667,273.993 12.555,273.941 12.419 C 273.797 12.045,253.703 12.045,253.559 12.419 M295.773 12.418 C 295.510 12.555,295.157 12.667,294.989 12.667 C 294.517 12.667,293.833 13.028,293.833 13.277 C 293.833 13.400,293.737 13.500,293.619 13.500 C 293.502 13.500,293.272 13.725,293.110 14.000 C 292.947 14.275,292.744 14.500,292.657 14.500 C 292.571 14.500,292.500 14.650,292.500 14.833 C 292.500 15.017,292.425 15.167,292.333 15.167 C 292.242 15.167,292.176 15.223,292.186 15.292 C 292.238 15.619,292.149 15.829,291.973 15.792 C 291.867 15.769,291.729 15.938,291.667 16.167 C 291.605 16.396,291.467 16.565,291.360 16.542 C 291.254 16.519,291.167 16.687,291.167 16.917 C 291.167 17.146,291.092 17.333,291.000 17.333 C 290.908 17.333,290.833 17.446,290.833 17.583 C 290.833 17.721,290.721 17.833,290.583 17.833 C 290.428 17.833,290.333 17.991,290.333 18.250 C 290.333 18.479,290.258 18.667,290.167 18.667 C 290.075 18.667,290.000 18.801,290.000 18.966 C 290.000 19.131,289.778 19.450,289.507 19.674 C 289.236 19.899,289.011 20.225,289.007 20.397 C 289.003 20.570,288.835 20.854,288.634 21.028 C 288.432 21.203,288.253 21.445,288.235 21.566 C 288.197 21.827,287.304 23.226,287.125 23.306 C 287.056 23.336,287.000 23.542,287.000 23.764 C 287.000 24.011,286.903 24.167,286.750 24.167 C 286.612 24.167,286.500 24.271,286.500 24.399 C 286.500 24.527,286.387 24.674,286.250 24.727 C 286.112 24.780,286.000 24.975,286.000 25.161 C 286.000 25.348,285.925 25.500,285.833 25.500 C 285.742 25.500,285.667 25.646,285.667 25.825 C 285.667 26.004,285.573 26.210,285.458 26.283 C 285.185 26.458,284.833 27.095,284.833 27.414 C 284.833 27.553,284.730 27.667,284.604 27.667 C 284.336 27.667,283.811 28.662,283.956 28.897 C 284.012 28.988,283.936 29.011,283.777 28.950 C 283.593 28.879,283.500 28.929,283.500 29.100 C 283.500 29.240,283.313 29.601,283.083 29.902 C 282.854 30.202,282.667 30.538,282.667 30.649 C 282.667 30.759,282.479 31.023,282.250 31.235 C 282.021 31.448,281.833 31.782,281.833 31.977 C 281.833 32.183,281.728 32.333,281.583 32.333 C 281.443 32.333,281.333 32.482,281.333 32.672 C 281.333 32.858,281.226 33.052,281.094 33.102 C 280.962 33.153,280.895 33.301,280.945 33.430 C 281.000 33.574,280.930 33.667,280.768 33.667 C 280.593 33.667,280.500 33.812,280.500 34.083 C 280.500 34.343,280.406 34.500,280.250 34.500 C 280.112 34.500,280.000 34.612,280.000 34.750 C 280.000 34.887,279.925 35.000,279.833 35.000 C 279.742 35.000,279.667 35.142,279.667 35.316 C 279.667 35.489,279.554 35.674,279.417 35.727 C 279.279 35.780,279.167 35.981,279.167 36.173 C 279.167 36.547,278.808 37.000,278.512 37.000 C 278.414 37.000,278.333 37.188,278.333 37.417 C 278.333 37.646,278.277 37.834,278.208 37.834 C 277.913 37.837,277.500 38.914,277.500 39.680 L 277.500 40.500 281.000 40.500 C 284.787 40.500,285.167 40.409,285.167 39.500 C 285.167 39.315,285.278 39.167,285.417 39.167 C 285.554 39.167,285.667 39.054,285.667 38.917 C 285.667 38.779,285.742 38.667,285.833 38.667 C 285.925 38.667,286.000 38.479,286.000 38.250 C 286.000 38.021,286.085 37.833,286.190 37.833 C 286.431 37.833,286.820 37.328,286.831 37.000 C 286.835 36.862,287.026 36.573,287.254 36.356 C 287.483 36.139,287.715 35.784,287.769 35.565 C 287.824 35.347,287.936 35.210,288.018 35.261 C 288.100 35.312,288.167 35.161,288.167 34.927 C 288.167 34.659,288.260 34.500,288.417 34.500 C 288.554 34.500,288.667 34.387,288.667 34.250 C 288.667 34.112,288.742 34.000,288.833 34.000 C 288.925 34.000,289.000 33.813,289.000 33.583 L 289.000 33.167 295.250 33.167 C 300.694 33.167,301.500 33.134,301.500 32.917 C 301.500 32.761,301.657 32.667,301.917 32.667 C 302.250 32.667,302.333 32.583,302.333 32.250 C 302.333 31.991,302.428 31.833,302.583 31.833 C 302.819 31.833,302.913 31.621,302.840 31.254 C 302.823 31.164,303.001 31.299,303.237 31.554 C 303.473 31.809,303.667 32.088,303.667 32.175 C 303.667 32.262,303.787 32.333,303.934 32.333 C 304.102 32.333,304.167 32.425,304.108 32.579 C 304.057 32.713,304.123 32.933,304.257 33.067 C 304.391 33.200,304.500 33.430,304.500 33.577 C 304.500 33.724,304.612 33.887,304.750 33.940 C 304.887 33.992,305.000 34.140,305.000 34.268 C 305.000 34.396,305.070 34.500,305.155 34.500 C 305.241 34.500,305.364 34.669,305.429 34.875 C 305.494 35.081,305.735 35.412,305.964 35.609 C 306.212 35.822,306.342 36.071,306.284 36.220 C 306.231 36.360,306.295 36.514,306.427 36.564 C 306.559 36.615,306.667 36.775,306.667 36.919 C 306.667 37.064,306.854 37.356,307.083 37.569 C 307.313 37.781,307.500 38.115,307.500 38.311 C 307.500 38.516,307.606 38.667,307.750 38.667 C 307.887 38.667,308.000 38.779,308.000 38.917 C 308.000 39.054,308.075 39.167,308.167 39.167 C 308.258 39.167,308.333 39.354,308.333 39.583 C 308.333 39.843,308.428 40.000,308.583 40.000 C 308.721 40.000,308.833 40.112,308.833 40.250 C 308.833 40.465,309.352 40.500,312.503 40.500 L 316.174 40.500 316.113 39.467 C 316.079 38.882,315.969 38.406,315.860 38.370 C 315.754 38.335,315.667 38.199,315.667 38.069 C 315.667 37.940,315.554 37.833,315.417 37.833 C 315.276 37.833,315.167 37.684,315.167 37.493 C 315.167 37.306,315.011 36.987,314.821 36.785 C 314.630 36.582,314.334 36.117,314.162 35.750 C 313.991 35.383,313.661 34.867,313.429 34.603 C 313.197 34.339,313.048 34.057,313.097 33.977 C 313.147 33.897,313.071 33.786,312.927 33.731 C 312.784 33.676,312.667 33.535,312.667 33.417 C 312.667 33.299,312.554 33.159,312.417 33.106 C 312.279 33.054,312.167 32.858,312.167 32.672 C 312.167 32.486,312.092 32.333,312.000 32.333 C 311.908 32.333,311.833 32.181,311.833 31.995 C 311.833 31.809,311.721 31.613,311.583 31.560 C 311.446 31.508,311.333 31.366,311.333 31.246 C 311.333 31.126,311.254 31.001,311.158 30.969 C 311.061 30.937,310.957 30.762,310.927 30.580 C 310.897 30.399,310.789 30.269,310.686 30.292 C 310.584 30.315,310.500 30.230,310.500 30.104 C 310.500 29.977,310.387 29.780,310.248 29.665 C 310.109 29.550,310.015 29.334,310.039 29.186 C 310.064 29.038,309.990 28.935,309.875 28.958 C 309.755 28.982,309.667 28.832,309.667 28.607 C 309.667 28.382,309.488 28.079,309.250 27.900 C 309.021 27.728,308.833 27.418,308.833 27.210 C 308.833 27.003,308.740 26.833,308.625 26.832 C 308.410 26.831,308.000 26.099,308.000 25.717 C 308.000 25.598,307.887 25.500,307.750 25.500 C 307.594 25.500,307.500 25.343,307.500 25.083 C 307.500 24.824,307.406 24.667,307.250 24.667 C 307.112 24.667,307.000 24.554,307.000 24.417 C 307.000 24.279,306.925 24.167,306.833 24.167 C 306.742 24.167,306.667 23.979,306.667 23.750 C 306.667 23.521,306.581 23.333,306.477 23.333 C 306.219 23.333,305.845 22.818,305.839 22.453 C 305.836 22.290,305.721 22.113,305.583 22.060 C 305.446 22.008,305.331 21.841,305.328 21.691 C 305.321 21.345,304.940 20.833,304.690 20.833 C 304.585 20.833,304.500 20.633,304.500 20.389 C 304.500 20.144,304.450 19.994,304.389 20.055 C 304.256 20.189,303.667 19.258,303.667 18.913 C 303.667 18.777,303.554 18.667,303.417 18.667 C 303.261 18.667,303.167 18.509,303.167 18.250 C 303.167 18.021,303.092 17.833,303.000 17.833 C 302.908 17.833,302.833 17.721,302.833 17.583 C 302.833 17.446,302.721 17.333,302.583 17.333 C 302.439 17.333,302.333 17.183,302.333 16.977 C 302.333 16.782,302.146 16.448,301.917 16.235 C 301.688 16.023,301.500 15.696,301.500 15.508 C 301.500 15.316,301.391 15.167,301.250 15.167 C 301.112 15.167,301.000 15.025,301.000 14.852 C 301.000 14.270,299.239 12.667,298.600 12.667 C 298.293 12.667,297.947 12.554,297.833 12.417 C 297.564 12.092,296.396 12.093,295.773 12.418 M329.893 12.419 C 329.823 12.602,329.523 12.667,328.746 12.667 C 328.152 12.667,327.669 12.744,327.635 12.844 C 327.603 12.941,327.356 13.045,327.086 13.075 C 326.817 13.104,326.568 13.212,326.534 13.314 C 326.500 13.416,326.366 13.500,326.236 13.500 C 326.106 13.500,326.000 13.621,326.000 13.768 C 326.000 13.939,325.909 14.001,325.746 13.938 C 325.587 13.877,325.244 14.089,324.830 14.504 C 324.465 14.868,324.092 15.167,324.000 15.167 C 323.908 15.167,323.833 15.266,323.833 15.389 C 323.833 15.511,323.646 15.711,323.417 15.833 C 323.188 15.956,323.000 16.159,323.000 16.283 C 323.000 16.408,322.888 16.553,322.751 16.606 C 322.614 16.659,322.540 16.763,322.586 16.837 C 322.632 16.912,322.557 17.086,322.418 17.225 C 322.280 17.363,322.167 17.592,322.167 17.733 C 322.167 17.874,322.070 17.953,321.952 17.907 C 321.822 17.857,321.727 17.968,321.711 18.189 C 321.696 18.389,321.586 18.615,321.467 18.691 C 321.348 18.766,321.315 18.829,321.395 18.831 C 321.475 18.832,321.457 18.934,321.355 19.057 C 321.253 19.180,321.219 19.330,321.279 19.390 C 321.340 19.451,321.268 19.500,321.121 19.500 C 320.924 19.500,320.839 19.690,320.801 20.208 C 320.771 20.629,320.672 20.902,320.558 20.881 C 320.442 20.859,320.367 21.086,320.367 21.458 C 320.367 21.796,320.284 22.100,320.183 22.133 C 320.071 22.171,320.000 22.697,320.000 23.493 C 320.000 24.445,319.933 24.848,319.750 25.000 C 319.566 25.152,319.500 25.557,319.500 26.526 C 319.500 27.544,319.557 27.866,319.750 27.940 C 319.945 28.014,320.000 28.344,320.000 29.425 C 320.000 30.189,320.075 30.860,320.167 30.917 C 320.258 30.973,320.333 31.280,320.333 31.598 C 320.333 31.959,320.428 32.213,320.583 32.273 C 320.727 32.328,320.833 32.577,320.833 32.856 C 320.833 33.124,320.933 33.382,321.056 33.429 C 321.178 33.476,321.278 33.615,321.278 33.739 C 321.278 34.089,321.777 35.034,322.243 35.568 C 322.476 35.834,322.667 36.153,322.667 36.276 C 322.667 36.399,322.742 36.500,322.833 36.500 C 322.925 36.500,323.000 36.612,323.000 36.750 C 323.000 36.887,323.112 37.000,323.250 37.000 C 323.387 37.000,323.500 37.080,323.500 37.179 C 323.500 37.409,323.924 37.833,324.155 37.833 C 324.253 37.833,324.333 37.914,324.333 38.012 C 324.333 38.234,324.754 38.667,324.970 38.667 C 325.059 38.667,325.174 38.779,325.227 38.917 C 325.280 39.054,325.467 39.167,325.644 39.167 C 325.820 39.167,326.008 39.279,326.060 39.417 C 326.113 39.554,326.309 39.667,326.495 39.667 C 326.681 39.667,326.833 39.742,326.833 39.833 C 326.833 39.925,327.013 40.000,327.232 40.000 C 327.452 40.000,327.674 40.113,327.727 40.250 C 327.811 40.469,329.207 40.500,338.898 40.500 C 349.614 40.500,350.604 40.470,350.406 40.149 C 350.355 40.067,350.399 40.000,350.503 40.000 C 350.789 40.000,351.667 39.063,351.667 38.758 C 351.667 38.610,351.779 38.446,351.917 38.394 C 352.054 38.341,352.167 38.193,352.167 38.066 C 352.167 37.938,352.242 37.833,352.333 37.833 C 352.425 37.833,352.500 37.654,352.500 37.434 C 352.500 37.215,352.613 36.992,352.750 36.940 C 352.939 36.867,353.000 36.560,353.000 35.672 L 353.000 34.500 342.101 34.500 C 332.567 34.500,331.190 34.469,331.106 34.250 C 331.054 34.112,330.821 34.000,330.589 34.000 C 330.357 34.000,330.167 33.925,330.167 33.833 C 330.167 33.742,329.979 33.667,329.750 33.667 C 329.521 33.667,329.333 33.593,329.333 33.502 C 329.333 33.246,328.790 32.674,328.637 32.768 C 328.562 32.815,328.500 32.742,328.500 32.607 C 328.500 32.472,328.422 32.335,328.326 32.303 C 328.230 32.271,328.139 32.077,328.124 31.873 C 328.108 31.668,327.999 31.500,327.881 31.500 C 327.762 31.500,327.667 31.310,327.667 31.073 C 327.667 30.839,327.597 30.690,327.512 30.743 C 327.323 30.859,327.104 30.237,327.250 30.000 C 327.307 29.907,327.237 29.786,327.094 29.731 C 326.898 29.656,326.833 29.386,326.833 28.649 C 326.833 27.887,326.777 27.667,326.583 27.667 C 326.387 27.667,326.333 27.437,326.333 26.601 C 326.333 25.808,326.397 25.511,326.583 25.440 C 326.767 25.369,326.833 25.080,326.833 24.356 C 326.833 23.632,326.900 23.343,327.083 23.273 C 327.221 23.220,327.333 23.029,327.333 22.848 C 327.333 22.668,327.408 22.473,327.500 22.417 C 327.592 22.360,327.667 22.176,327.667 22.008 C 327.667 21.840,327.787 21.656,327.934 21.600 C 328.090 21.540,328.161 21.391,328.103 21.242 C 328.048 21.098,328.113 20.946,328.253 20.893 C 328.389 20.840,328.500 20.693,328.500 20.566 C 328.500 20.438,328.612 20.333,328.750 20.333 C 328.887 20.333,329.000 20.253,329.000 20.155 C 329.000 19.932,329.421 19.500,329.637 19.500 C 329.725 19.500,329.841 19.387,329.894 19.250 C 329.950 19.104,330.199 19.000,330.495 19.000 C 330.773 19.000,331.000 18.925,331.000 18.833 C 331.000 18.724,334.190 18.667,340.236 18.667 C 349.188 18.667,350.102 18.633,349.906 18.316 C 349.855 18.234,349.936 18.167,350.085 18.167 C 350.393 18.167,350.833 17.781,350.833 17.512 C 350.833 17.414,350.946 17.333,351.083 17.333 C 351.221 17.333,351.333 17.239,351.333 17.123 C 351.333 17.007,351.521 16.772,351.750 16.600 C 351.979 16.427,352.167 16.147,352.167 15.977 C 352.167 15.806,352.242 15.667,352.333 15.667 C 352.425 15.667,352.500 15.487,352.500 15.268 C 352.500 15.048,352.613 14.826,352.750 14.773 C 352.934 14.702,353.000 14.412,353.000 13.672 C 353.000 12.889,352.945 12.667,352.750 12.667 C 352.613 12.667,352.500 12.555,352.500 12.419 C 352.500 12.044,330.037 12.044,329.893 12.419 M367.165 12.419 C 367.031 12.580,366.656 12.667,366.096 12.667 C 365.622 12.667,365.154 12.746,365.056 12.844 C 364.959 12.941,364.647 13.028,364.364 13.036 C 364.081 13.044,363.811 13.151,363.763 13.275 C 363.716 13.399,363.525 13.500,363.339 13.500 C 363.149 13.500,363.000 13.610,363.000 13.750 C 363.000 13.887,362.887 14.000,362.750 14.000 C 362.613 14.000,362.500 14.075,362.500 14.167 C 362.500 14.258,362.387 14.333,362.250 14.333 C 362.113 14.333,362.000 14.414,362.000 14.512 C 362.000 14.743,361.576 15.167,361.345 15.167 C 361.247 15.167,361.167 15.247,361.167 15.345 C 361.167 15.576,360.743 16.000,360.512 16.000 C 360.414 16.000,360.333 16.079,360.333 16.175 C 360.333 16.271,360.146 16.523,359.917 16.735 C 359.688 16.948,359.500 17.282,359.500 17.477 C 359.500 17.694,359.395 17.833,359.231 17.833 C 359.041 17.833,358.988 17.935,359.051 18.177 C 359.106 18.387,359.049 18.556,358.904 18.611 C 358.773 18.661,358.667 18.874,358.667 19.083 C 358.667 19.293,358.554 19.508,358.417 19.560 C 358.279 19.613,358.167 19.801,358.167 19.977 C 358.167 20.153,358.046 20.344,357.898 20.401 C 357.691 20.480,357.655 20.636,357.739 21.085 C 357.822 21.524,357.791 21.667,357.616 21.667 C 357.445 21.667,357.375 21.943,357.352 22.705 C 357.332 23.380,357.242 23.788,357.094 23.871 C 356.761 24.057,356.767 28.904,357.100 29.181 C 357.245 29.301,357.333 29.702,357.333 30.237 C 357.333 30.712,357.419 31.186,357.524 31.291 C 357.629 31.395,357.734 31.727,357.757 32.027 C 357.781 32.327,357.883 32.600,357.983 32.633 C 358.084 32.667,358.167 32.878,358.167 33.102 C 358.167 33.327,358.279 33.554,358.417 33.606 C 358.554 33.659,358.667 33.882,358.667 34.101 C 358.667 34.321,358.742 34.500,358.833 34.500 C 358.925 34.500,359.000 34.688,359.000 34.917 C 359.000 35.176,359.094 35.333,359.250 35.333 C 359.387 35.333,359.502 35.465,359.505 35.625 C 359.510 35.948,360.398 37.000,360.664 37.000 C 360.757 37.000,360.833 37.080,360.833 37.179 C 360.833 37.409,361.257 37.833,361.488 37.833 C 361.586 37.833,361.667 37.933,361.667 38.055 C 361.667 38.177,361.854 38.377,362.083 38.500 C 362.313 38.623,362.500 38.823,362.500 38.945 C 362.500 39.070,362.681 39.167,362.917 39.167 C 363.176 39.167,363.333 39.261,363.333 39.417 C 363.333 39.554,363.446 39.667,363.583 39.667 C 363.721 39.667,363.833 39.742,363.833 39.833 C 363.833 39.925,364.064 40.000,364.345 40.000 C 364.627 40.000,364.970 40.112,365.107 40.250 C 365.324 40.467,366.812 40.500,376.447 40.500 L 387.537 40.500 388.268 39.758 C 388.671 39.350,389.000 38.896,389.000 38.750 C 389.000 38.604,389.188 38.310,389.417 38.098 C 389.683 37.851,389.833 37.531,389.833 37.210 C 389.833 36.933,389.946 36.614,390.083 36.500 C 390.249 36.363,390.333 35.990,390.333 35.396 L 390.333 34.500 379.411 34.500 C 369.857 34.500,368.478 34.469,368.394 34.250 C 368.341 34.113,368.133 34.000,367.932 34.000 C 367.494 34.000,366.670 33.639,366.668 33.446 C 366.666 33.269,366.231 32.833,366.054 32.833 C 365.978 32.833,365.770 32.613,365.590 32.345 C 365.410 32.076,365.204 31.894,365.132 31.938 C 365.059 31.983,365.000 31.822,365.000 31.581 C 365.000 31.340,364.887 31.030,364.748 30.891 C 364.610 30.753,364.540 30.570,364.592 30.485 C 364.645 30.400,364.571 30.286,364.427 30.231 C 364.284 30.176,364.167 30.027,364.167 29.899 C 364.167 29.703,365.758 29.667,374.356 29.667 L 384.545 29.667 384.931 29.250 C 385.144 29.021,385.364 28.833,385.421 28.833 C 385.591 28.833,386.000 28.371,386.000 28.179 C 386.000 28.080,386.113 28.000,386.250 28.000 C 386.387 28.000,386.500 27.887,386.500 27.750 C 386.500 27.613,386.575 27.500,386.667 27.500 C 386.758 27.500,386.833 27.358,386.833 27.184 C 386.833 27.011,386.946 26.826,387.083 26.773 C 387.221 26.720,387.333 26.519,387.333 26.327 C 387.333 26.134,387.449 25.860,387.591 25.719 C 387.918 25.391,387.888 23.833,387.554 23.833 C 387.432 23.833,387.333 23.721,387.333 23.583 C 387.333 23.364,385.935 23.333,375.750 23.333 C 365.960 23.333,364.167 23.297,364.167 23.101 C 364.167 22.973,364.279 22.826,364.417 22.773 C 364.554 22.720,364.667 22.525,364.667 22.339 C 364.667 22.152,364.742 22.000,364.833 22.000 C 364.925 22.000,365.000 21.813,365.000 21.583 C 365.000 21.348,365.096 21.167,365.222 21.167 C 365.344 21.167,365.544 20.979,365.667 20.750 C 365.789 20.521,365.989 20.333,366.111 20.333 C 366.234 20.333,366.333 20.253,366.333 20.155 C 366.333 19.924,366.757 19.500,366.988 19.500 C 367.086 19.500,367.167 19.387,367.167 19.250 C 367.167 19.094,367.324 19.000,367.583 19.000 C 367.813 19.000,368.000 18.925,368.000 18.833 C 368.000 18.724,371.307 18.667,377.589 18.667 C 385.958 18.667,387.189 18.635,387.273 18.417 C 387.326 18.279,387.461 18.167,387.573 18.167 C 387.685 18.167,387.877 17.979,388.000 17.750 C 388.123 17.521,388.323 17.333,388.445 17.333 C 388.567 17.333,388.667 17.239,388.667 17.123 C 388.667 17.007,388.857 16.769,389.090 16.594 C 389.323 16.419,389.474 16.174,389.426 16.049 C 389.378 15.923,389.450 15.778,389.586 15.726 C 389.726 15.672,389.833 15.421,389.833 15.149 C 389.833 14.831,389.919 14.667,390.083 14.667 C 390.278 14.667,390.333 14.444,390.333 13.667 C 390.333 12.889,390.278 12.667,390.083 12.667 C 389.946 12.667,389.833 12.555,389.833 12.419 C 389.833 12.044,367.476 12.044,367.165 12.419 M64.000 20.083 C 64.000 24.139,63.941 26.333,63.833 26.333 C 63.725 26.333,63.667 24.139,63.667 20.083 C 63.667 16.028,63.725 13.833,63.833 13.833 C 63.941 13.833,64.000 16.028,64.000 20.083 M174.958 23.303 C 174.931 25.015,174.909 23.567,174.909 20.083 C 174.909 16.600,174.931 15.199,174.958 16.969 C 174.985 18.740,174.985 21.590,174.958 23.303 M41.500 18.833 C 41.500 18.925,41.688 19.000,41.917 19.000 C 42.176 19.000,42.333 19.094,42.333 19.250 C 42.333 19.387,42.450 19.500,42.593 19.500 C 42.736 19.500,42.807 19.575,42.750 19.667 C 42.693 19.758,42.764 19.833,42.907 19.833 C 43.050 19.833,43.167 19.903,43.167 19.987 C 43.167 20.187,44.146 21.167,44.346 21.167 C 44.431 21.167,44.500 21.354,44.500 21.583 C 44.500 21.813,44.575 22.000,44.667 22.000 C 44.758 22.000,44.833 22.182,44.833 22.405 C 44.833 22.627,44.946 22.922,45.083 23.060 C 45.224 23.200,45.333 23.607,45.333 23.988 C 45.333 24.361,45.408 24.667,45.500 24.667 C 45.601 24.667,45.667 25.417,45.667 26.583 C 45.667 27.750,45.601 28.500,45.500 28.500 C 45.408 28.500,45.333 28.768,45.333 29.095 C 45.333 29.423,45.221 29.803,45.083 29.940 C 44.946 30.078,44.833 30.415,44.833 30.688 C 44.833 30.978,44.764 31.143,44.667 31.083 C 44.572 31.025,44.500 31.165,44.500 31.407 C 44.500 31.675,44.407 31.833,44.250 31.833 C 44.112 31.833,44.000 31.914,44.000 32.013 C 44.000 32.246,43.079 33.167,42.846 33.167 C 42.747 33.167,42.667 33.247,42.667 33.345 C 42.667 33.658,42.204 34.000,41.782 34.000 C 41.558 34.000,41.281 34.112,41.167 34.250 C 40.853 34.628,21.437 34.628,21.060 34.250 C 20.922 34.112,20.627 34.000,20.405 34.000 C 20.182 34.000,20.000 33.925,20.000 33.833 C 20.000 33.742,19.887 33.667,19.750 33.667 C 19.612 33.667,19.500 33.567,19.500 33.445 C 19.500 33.323,19.313 33.123,19.083 33.000 C 18.854 32.877,18.667 32.677,18.667 32.555 C 18.667 32.433,18.554 32.333,18.417 32.333 C 18.278 32.333,18.167 32.185,18.167 32.000 C 18.167 31.817,18.092 31.667,18.000 31.667 C 17.908 31.667,17.833 31.552,17.833 31.411 C 17.833 31.271,17.721 31.113,17.583 31.060 C 17.429 31.001,17.333 30.748,17.333 30.399 C 17.333 30.088,17.258 29.833,17.167 29.833 C 17.075 29.833,17.000 29.568,17.000 29.245 C 17.000 28.875,16.907 28.620,16.750 28.560 C 16.548 28.483,16.500 28.102,16.500 26.583 C 16.500 25.065,16.548 24.684,16.750 24.606 C 16.915 24.543,17.000 24.282,17.000 23.839 C 17.000 23.469,17.075 23.167,17.167 23.167 C 17.258 23.167,17.333 22.904,17.333 22.583 C 17.333 22.176,17.409 22.000,17.583 22.000 C 17.721 22.000,17.833 21.852,17.833 21.670 C 17.833 21.329,19.509 19.500,19.822 19.500 C 19.920 19.500,20.000 19.387,20.000 19.250 C 20.000 19.094,20.157 19.000,20.417 19.000 C 20.646 19.000,20.833 18.925,20.833 18.833 C 20.833 18.724,24.389 18.667,31.167 18.667 C 37.944 18.667,41.500 18.724,41.500 18.833 M297.167 21.833 C 297.265 22.017,297.291 22.167,297.224 22.167 C 297.158 22.167,297.265 22.317,297.462 22.500 C 297.658 22.683,297.906 22.833,298.012 22.833 C 298.122 22.833,298.169 22.974,298.121 23.157 C 298.065 23.369,298.201 23.642,298.513 23.949 C 298.776 24.206,298.993 24.548,298.995 24.708 C 298.998 24.869,299.067 25.000,299.149 25.000 C 299.230 25.000,299.344 25.188,299.402 25.417 C 299.459 25.646,299.580 25.833,299.670 25.833 C 299.760 25.833,299.833 25.946,299.833 26.083 C 299.833 26.221,299.908 26.333,300.000 26.333 C 300.092 26.333,300.167 26.446,300.167 26.583 C 300.167 26.797,299.676 26.833,296.750 26.833 C 293.425 26.833,292.534 26.676,293.583 26.273 C 293.721 26.220,293.833 26.025,293.833 25.839 C 293.833 25.652,293.908 25.500,294.000 25.500 C 294.092 25.500,294.167 25.396,294.167 25.268 C 294.167 25.140,294.279 24.992,294.417 24.940 C 294.554 24.887,294.667 24.691,294.667 24.505 C 294.667 24.319,294.742 24.167,294.833 24.167 C 294.925 24.167,295.000 24.062,295.000 23.934 C 295.000 23.807,295.112 23.659,295.250 23.606 C 295.387 23.554,295.500 23.366,295.500 23.190 C 295.500 23.013,295.612 22.826,295.750 22.773 C 295.887 22.720,296.000 22.576,296.000 22.453 C 296.000 21.796,296.893 21.321,297.167 21.833 " stroke="none" fill="#7c0404" fill-rule="evenodd"></path><path id="path1" d="M63.667 20.083 C 63.667 24.139,63.725 26.333,63.833 26.333 C 63.941 26.333,64.000 24.139,64.000 20.083 C 64.000 16.028,63.941 13.833,63.833 13.833 C 63.725 13.833,63.667 16.028,63.667 20.083 M174.909 20.083 C 174.909 23.567,174.931 25.015,174.958 23.303 C 174.985 21.590,174.985 18.740,174.958 16.969 C 174.931 15.199,174.909 16.600,174.909 20.083 M215.233 24.234 C 215.184 24.363,215.169 24.719,215.201 25.026 C 215.253 25.515,215.270 25.486,215.339 24.792 C 215.421 23.980,215.391 23.822,215.233 24.234 " stroke="none" fill="#800404" fill-rule="evenodd"></path><path id="path2" d="M63.667 20.083 C 63.667 24.139,63.725 26.333,63.833 26.333 C 63.941 26.333,64.000 24.139,64.000 20.083 C 64.000 16.028,63.941 13.833,63.833 13.833 C 63.725 13.833,63.667 16.028,63.667 20.083 M174.909 20.083 C 174.909 23.567,174.931 25.015,174.958 23.303 C 174.985 21.590,174.985 18.740,174.958 16.969 C 174.931 15.199,174.909 16.600,174.909 20.083 M215.233 24.234 C 215.184 24.363,215.169 24.719,215.201 25.026 C 215.253 25.515,215.270 25.486,215.339 24.792 C 215.421 23.980,215.391 23.822,215.233 24.234 " stroke="none" fill="#800404" fill-rule="evenodd"></path><path id="path3" d="M63.667 20.083 C 63.667 24.139,63.725 26.333,63.833 26.333 C 63.941 26.333,64.000 24.139,64.000 20.083 C 64.000 16.028,63.941 13.833,63.833 13.833 C 63.725 13.833,63.667 16.028,63.667 20.083 M174.909 20.083 C 174.909 23.567,174.931 25.015,174.958 23.303 C 174.985 21.590,174.985 18.740,174.958 16.969 C 174.931 15.199,174.909 16.600,174.909 20.083 M215.233 24.234 C 215.184 24.363,215.169 24.719,215.201 25.026 C 215.253 25.515,215.270 25.486,215.339 24.792 C 215.421 23.980,215.391 23.822,215.233 24.234 " stroke="none" fill="#800404" fill-rule="evenodd"></path><path id="path4" d="M63.667 20.083 C 63.667 24.139,63.725 26.333,63.833 26.333 C 63.941 26.333,64.000 24.139,64.000 20.083 C 64.000 16.028,63.941 13.833,63.833 13.833 C 63.725 13.833,63.667 16.028,63.667 20.083 M174.909 20.083 C 174.909 23.567,174.931 25.015,174.958 23.303 C 174.985 21.590,174.985 18.740,174.958 16.969 C 174.931 15.199,174.909 16.600,174.909 20.083 M215.233 24.234 C 215.184 24.363,215.169 24.719,215.201 25.026 C 215.253 25.515,215.270 25.486,215.339 24.792 C 215.421 23.980,215.391 23.822,215.233 24.234 " stroke="none" fill="#800404" fill-rule="evenodd"></path></g></svg>